<svg width="60" height="60" viewBox="0 0 60 60" fill="none" xmlns="http://www.w3.org/2000/svg">
<rect width="60" height="60" fill="url(#paint0_linear_46_164)"/>
<path fill-rule="evenodd" clip-rule="evenodd" d="M47.8824 37.9361C47.8824 39.4108 47.0926 40.7735 45.8107 41.5108L32.0128 49.447C30.7309 50.1843 29.1515 50.1843 27.8695 49.447L14.0717 41.5108C12.7897 40.7735 12 39.4108 12 37.9361L12 22.0639C12 20.5892 12.7897 19.2265 14.0717 18.4892L27.8695 10.553C29.1515 9.81566 30.7309 9.81566 32.0128 10.553L45.8107 18.4892C47.0926 19.2265 47.8824 20.5892 47.8824 22.0639L47.8824 37.9361ZM40.1186 41.925L30.7698 47.3022C30.2571 47.5971 29.6253 47.5971 29.1125 47.3022L19.6978 41.8871L29.9217 36.0213L40.1186 41.925ZM29.8249 33.2741L29.8545 33.2229L40.0435 33.3678L44.1028 35.7026L33.9081 35.5494L42.5102 40.5494L44.5677 39.366C45.0805 39.0711 45.3964 38.526 45.3964 37.9361V35.4757L32.7097 28.1787L27.6954 19.4087V14.7779L32.7075 23.5764L32.7075 13.8123L30.7698 12.6978C30.2571 12.4029 29.6253 12.4029 29.1125 12.6978L26.8671 13.9893L26.8745 28.0809L21.7454 36.9176L17.7198 39.233L22.8098 30.4189L14.486 35.2065L14.486 37.9361C14.486 38.526 14.8019 39.0711 15.3147 39.366L17.2583 40.484L29.8249 33.2741ZM14.486 32.491L24.4082 26.784L24.4022 15.4071L15.3147 20.634C14.8019 20.9289 14.486 21.474 14.486 22.0639L14.486 32.491ZM44.5677 20.634L35.1734 15.2306L35.1751 26.8143L45.3964 32.6933V22.0639C45.3964 21.474 45.0805 20.9289 44.5677 20.634Z" fill="white"/>
<defs>
<linearGradient id="paint0_linear_46_164" x1="0.042674" y1="9.7319" x2="59.5324" y2="47.4642" gradientUnits="userSpaceOnUse">
<stop stop-color="#7432FF"/>
<stop offset="0.401042" stop-color="#110FFF"/>
<stop offset="1" stop-color="#40F4CA"/>
</linearGradient>
</defs>
</svg>
