<svg width="180" height="180" viewBox="0 0 180 180" fill="none" xmlns="http://www.w3.org/2000/svg">
<rect width="180" height="180" fill="url(#paint0_linear_46_170)"/>
<path fill-rule="evenodd" clip-rule="evenodd" d="M147.824 115.396C147.824 120.115 145.296 124.475 141.194 126.835L97.0411 152.23C92.9389 154.59 87.8847 154.59 83.7824 152.23L39.6294 126.835C35.5271 124.475 33 120.115 33 115.396L33 64.6043C33 59.8853 35.5271 55.5248 39.6293 53.1653L83.7824 27.7696C87.8847 25.4101 92.9388 25.4101 97.0411 27.7696L141.194 53.1653C145.296 55.5248 147.824 59.8853 147.824 64.6043L147.824 115.396ZM122.98 128.16L93.0635 145.367C91.4226 146.311 89.4009 146.311 87.76 145.367L57.633 128.039L90.3494 109.268L122.98 128.16ZM90.0396 100.477L90.1344 100.313L122.739 100.777L135.729 108.248L103.106 107.758L130.633 123.758L137.217 119.971C138.857 119.027 139.868 117.283 139.868 115.396V107.522L99.271 84.1719L83.2253 56.1079V41.2893L99.264 69.4445L99.264 38.1994L93.0635 34.6331C91.4226 33.6893 89.4009 33.6893 87.76 34.6331L80.5748 38.7658L80.5985 83.859L64.1852 112.136L51.3034 119.546L67.5913 91.3403L40.9552 106.661L40.9552 115.396C40.9552 117.283 41.966 119.027 43.607 119.971L49.8267 123.549L90.0396 100.477ZM40.9552 97.9713L72.7063 79.7089L72.6872 43.3026L43.6069 60.0287C41.966 60.9725 40.9552 62.7167 40.9552 64.6043L40.9552 97.9713ZM137.217 60.0287L107.155 42.7381L107.16 79.8057L139.868 98.6184V64.6043C139.868 62.7167 138.857 60.9725 137.217 60.0287Z" fill="white"/>
<defs>
<linearGradient id="paint0_linear_46_170" x1="0.128022" y1="29.1957" x2="178.597" y2="142.393" gradientUnits="userSpaceOnUse">
<stop stop-color="#7432FF"/>
<stop offset="0.401042" stop-color="#110FFF"/>
<stop offset="1" stop-color="#40F4CA"/>
</linearGradient>
</defs>
</svg>
