<svg width="120" height="120" viewBox="0 0 120 120" fill="none" xmlns="http://www.w3.org/2000/svg">
<rect width="120" height="120" fill="url(#paint0_linear_46_167)"/>
<path fill-rule="evenodd" clip-rule="evenodd" d="M95.7647 75.8723C95.7647 78.8217 94.1853 81.547 91.6214 83.0217L64.0257 98.894C61.4618 100.369 58.3029 100.369 55.739 98.894L28.1433 83.0217C25.5794 81.547 24 78.8217 24 75.8723L24 44.1277C24 41.1783 25.5794 38.453 28.1433 36.9783L55.739 21.106C58.3029 19.6313 61.4618 19.6313 64.0257 21.106L91.6214 36.9783C94.1853 38.453 95.7647 41.1783 95.7647 44.1277L95.7647 75.8723ZM80.2373 83.85L61.5397 94.6043C60.5141 95.1942 59.2506 95.1942 58.225 94.6043L39.3956 83.7742L59.8434 72.0426L80.2373 83.85ZM59.6497 66.5482L59.709 66.4459L80.0871 66.7356L88.2056 71.4052L67.8161 71.0988L85.0205 81.0988L89.1354 78.732C90.1609 78.1422 90.7927 77.052 90.7927 75.8723V70.9515L65.4194 56.3574L55.3908 38.8174V29.5558L65.415 47.1528L65.415 27.6246L61.5397 25.3957C60.5141 24.8058 59.2506 24.8058 58.225 25.3957L53.7343 27.9786L53.749 56.1618L43.4907 73.8352L35.4396 78.466L45.6196 60.8377L28.972 70.4129L28.972 75.8723C28.972 77.052 29.6038 78.1422 30.6293 78.7321L34.5167 80.9679L59.6497 66.5482ZM28.972 64.9821L48.8164 53.5681L48.8045 30.8141L30.6293 41.268C29.6038 41.8578 28.972 42.948 28.972 44.1277L28.972 64.9821ZM89.1354 41.2679L70.3468 30.4613L70.3502 53.6286L90.7927 65.3865V44.1277C90.7927 42.948 90.1609 41.8578 89.1354 41.2679Z" fill="white"/>
<defs>
<linearGradient id="paint0_linear_46_167" x1="0.085348" y1="19.4638" x2="119.065" y2="94.9284" gradientUnits="userSpaceOnUse">
<stop stop-color="#7432FF"/>
<stop offset="0.401042" stop-color="#110FFF"/>
<stop offset="1" stop-color="#40F4CA"/>
</linearGradient>
</defs>
</svg>
